<mxfile host="app.diagrams.net" modified="2021-02-03T01:47:28.504Z" agent="5.0 (Windows NT 10.0; Win64; x64) AppleWebKit/537.36 (KHTML, like Gecko) Chrome/87.0.4280.88  Safari/537.36" etag="8VYwbtDYORyvrczzQajC" version="14.2.9" type="github">
  <diagram id="jPnYqt82uUA1AttHEqHK" name="Page-1">
    <mxGraphModel dx="868" dy="427" grid="1" gridSize="10" guides="1" tooltips="1" connect="1" arrows="1" fold="1" page="1" pageScale="1" pageWidth="850" pageHeight="1100" math="0" shadow="0">
      <root>
        <mxCell id="0" />
        <mxCell id="1" parent="0" />
        <mxCell id="AtFyLhQAI6k6fNEDQ3Xa-1" value="SDP API&lt;br&gt;&amp;nbsp;Gateway" style="rounded=1;whiteSpace=wrap;html=1;horizontal=0;fontSize=15;fontStyle=1" vertex="1" parent="1">
          <mxGeometry x="130" y="20" width="70" height="390" as="geometry" />
        </mxCell>
        <mxCell id="AtFyLhQAI6k6fNEDQ3Xa-2" value="SD Portal" style="aspect=fixed;perimeter=ellipsePerimeter;html=1;align=center;shadow=0;dashed=0;fontColor=#4277BB;labelBackgroundColor=#ffffff;fontSize=12;spacingTop=3;image;image=img/lib/ibm/applications/api_developer_portal.svg;" vertex="1" parent="1">
          <mxGeometry x="40" y="70" width="60" height="60" as="geometry" />
        </mxCell>
        <mxCell id="AtFyLhQAI6k6fNEDQ3Xa-3" value="&lt;br&gt;&lt;br&gt;&lt;br&gt;Console" style="outlineConnect=0;fontColor=#232F3E;gradientColor=none;strokeColor=#ffffff;fillColor=#232F3E;dashed=0;verticalLabelPosition=middle;verticalAlign=middle;align=center;html=1;whiteSpace=wrap;fontSize=10;fontStyle=1;spacing=3;shape=mxgraph.aws4.productIcon;prIcon=mxgraph.aws4.management_console;labelPosition=center;" vertex="1" parent="1">
          <mxGeometry x="40" y="180" width="60" height="100" as="geometry" />
        </mxCell>
        <mxCell id="AtFyLhQAI6k6fNEDQ3Xa-4" value="" style="aspect=fixed;perimeter=ellipsePerimeter;html=1;align=center;shadow=0;dashed=0;fontColor=#4277BB;labelBackgroundColor=#ffffff;fontSize=12;spacingTop=3;image;image=img/lib/ibm/vpc/PublicGateway.svg;" vertex="1" parent="1">
          <mxGeometry x="142.5" y="22" width="45" height="45" as="geometry" />
        </mxCell>
        <mxCell id="AtFyLhQAI6k6fNEDQ3Xa-5" value="Monitoring" style="rounded=0;whiteSpace=wrap;html=1;horizontal=0;" vertex="1" parent="1">
          <mxGeometry x="175" y="287" width="20" height="80" as="geometry" />
        </mxCell>
        <mxCell id="AtFyLhQAI6k6fNEDQ3Xa-9" value="Routing" style="rounded=0;whiteSpace=wrap;html=1;horizontal=0;" vertex="1" parent="1">
          <mxGeometry x="135" y="287" width="20" height="80" as="geometry" />
        </mxCell>
        <mxCell id="AtFyLhQAI6k6fNEDQ3Xa-10" value="Log Aggr." style="rounded=0;whiteSpace=wrap;html=1;horizontal=0;" vertex="1" parent="1">
          <mxGeometry x="175" y="70" width="20" height="80" as="geometry" />
        </mxCell>
        <mxCell id="AtFyLhQAI6k6fNEDQ3Xa-11" value="Security" style="rounded=0;whiteSpace=wrap;html=1;horizontal=0;" vertex="1" parent="1">
          <mxGeometry x="135" y="70" width="20" height="80" as="geometry" />
        </mxCell>
      </root>
    </mxGraphModel>
  </diagram>
</mxfile>
